<svg xmlns="http://www.w3.org/2000/svg" xmlns:xlink="http://www.w3.org/1999/xlink" viewBox="-17535 21 139 31.732">
  <defs>
    <style>
      .cls-1 {
        clip-path: url(#clip-path);
      }

      .cls-2 {
        fill: #2e7de1;
      }

      .cls-3 {
        fill: #ff3eb3;
      }
    </style>
    <clipPath id="clip-path">
      <rect id="Rectangle_175" data-name="Rectangle 175" width="139" height="31.732"/>
    </clipPath>
  </defs>
  <g id="Logo" transform="translate(-17535 21)">
    <g id="Group_169" data-name="Group 169" class="cls-1">
      <path id="Path_202" data-name="Path 202" class="cls-2" d="M51.216,21.673H43.535V1.555A1.469,1.469,0,0,0,43.078.549,1.006,1.006,0,0,0,42.163,0a1.468,1.468,0,0,0-1.006.457A1.469,1.469,0,0,0,40.7,1.463V23.045a1.468,1.468,0,0,0,.457,1.006h0a1.468,1.468,0,0,0,1.006.457h9.145a1.424,1.424,0,0,0,1.006-2.469,1.6,1.6,0,0,0-1.1-.366" transform="translate(-3.481)"/>
    </g>
    <g id="Group_170" data-name="Group 170" class="cls-1">
      <path id="Path_203" data-name="Path 203" class="cls-2" d="M60.7,7.9h0a7.178,7.178,0,0,0-5.3,2.195A7.121,7.121,0,0,0,53.2,15.307v2.652a7.121,7.121,0,0,0,2.195,5.213,7.121,7.121,0,0,0,5.213,2.195H60.7a6.947,6.947,0,0,0,4.755-1.737v.366a1.293,1.293,0,0,0,2.195.914h0a1.174,1.174,0,0,0,.366-.914V15.307a7.121,7.121,0,0,0-2.195-5.212A6.779,6.779,0,0,0,60.7,7.9m-.091,2.652h0a4.685,4.685,0,0,1,4.755,4.755v2.652a4.851,4.851,0,0,1-1.372,3.384,4.549,4.549,0,0,1-3.384,1.372h-.091a4.851,4.851,0,0,1-3.384-1.372,4.549,4.549,0,0,1-1.372-3.384V15.307a4.851,4.851,0,0,1,1.372-3.384,5.236,5.236,0,0,1,3.475-1.372" transform="translate(-4.55 -0.676)"/>
    </g>
    <g id="Group_171" data-name="Group 171" class="cls-1">
      <path id="Path_204" data-name="Path 204" class="cls-2" d="M84.46,8a1.25,1.25,0,0,0-1.28,1.28v8.6a4.683,4.683,0,0,1-4.664,4.664h-.091a4.683,4.683,0,0,1-4.664-4.664v-8.5a1.4,1.4,0,0,0-.366-.914A1.013,1.013,0,0,0,72.48,8a1.06,1.06,0,0,0-.914.366,1.174,1.174,0,0,0-.366.914v8.6A6.779,6.779,0,0,0,73.395,23a6.837,6.837,0,0,0,5.212,2.195H78.7A6.779,6.779,0,0,0,83.82,23a6.837,6.837,0,0,0,2.195-5.212V9.372a1.06,1.06,0,0,0-.366-.914A1.784,1.784,0,0,0,84.46,8" transform="translate(-6.089 -0.684)"/>
    </g>
    <g id="Group_172" data-name="Group 172" class="cls-1">
      <path id="Path_205" data-name="Path 205" class="cls-2" d="M96.207,8h0a6.837,6.837,0,0,0-5.212,2.195A6.837,6.837,0,0,0,88.8,15.407V24a1.06,1.06,0,0,0,.366.914A1.28,1.28,0,0,0,91.361,24V15.316a4.683,4.683,0,0,1,4.664-4.664h.091a4.683,4.683,0,0,1,4.664,4.664v8.6a1.4,1.4,0,0,0,.366.914,1.174,1.174,0,0,0,.914.366,1.06,1.06,0,0,0,.914-.366,1.174,1.174,0,0,0,.366-.914v-8.6a6.779,6.779,0,0,0-2.195-5.121A6.135,6.135,0,0,0,96.207,8" transform="translate(-7.595 -0.684)"/>
    </g>
    <g id="Group_173" data-name="Group 173" class="cls-1">
      <path id="Path_206" data-name="Path 206" class="cls-2" d="M119.36,0a1.06,1.06,0,0,0-.914.366,1.625,1.625,0,0,0-.366.914V9.053a6.922,6.922,0,0,0-4.664-1.646h-.091a7.182,7.182,0,0,0-7.224,7.224v2.561a7.182,7.182,0,0,0,7.224,7.224h.091a7.182,7.182,0,0,0,7.224-7.224V1.28a1.06,1.06,0,0,0-.366-.914A1.625,1.625,0,0,0,119.36,0m-5.944,21.947h0a4.7,4.7,0,0,1-3.384-1.372,4.49,4.49,0,0,1-1.372-3.292V14.723a4.683,4.683,0,0,1,4.664-4.664h.091a4.683,4.683,0,0,1,4.664,4.664v2.561a4.683,4.683,0,0,1-4.664,4.664" transform="translate(-9.074)"/>
    </g>
    <g id="Group_174" data-name="Group 174" class="cls-1">
      <path id="Path_207" data-name="Path 207" class="cls-2" d="M132.9,7.9h-1.189a7.121,7.121,0,0,0-5.212,2.195,7.121,7.121,0,0,0-2.195,5.212v8.687a1.174,1.174,0,0,0,.366.914h0a1.174,1.174,0,0,0,.914.366,1.06,1.06,0,0,0,.914-.366,1.174,1.174,0,0,0,.366-.914V15.307a4.851,4.851,0,0,1,1.372-3.384,4.549,4.549,0,0,1,3.384-1.372H132.8a1.25,1.25,0,0,0,1.28-1.28,1.06,1.06,0,0,0-.366-.914A.8.8,0,0,0,132.9,7.9" transform="translate(-10.631 -0.676)"/>
    </g>
    <g id="Group_175" data-name="Group 175" class="cls-1">
      <path id="Path_208" data-name="Path 208" class="cls-2" d="M150.274,8.166a1.174,1.174,0,0,0-.914-.366,1.625,1.625,0,0,0-.914.366,1.174,1.174,0,0,0-.366.914v8.5a4.683,4.683,0,0,1-4.664,4.664h-.091a4.683,4.683,0,0,1-4.664-4.664V9.08a1.25,1.25,0,0,0-1.28-1.28,1.4,1.4,0,0,0-.914.366,1.174,1.174,0,0,0-.366.914v8.5a7.039,7.039,0,0,0,2.1,5.121,7.121,7.121,0,0,0,5.212,2.195h.091a7.091,7.091,0,0,0,4.664-1.646v1.829a4.683,4.683,0,0,1-4.664,4.664h-.183a4.765,4.765,0,0,1-2.652-.823,4.293,4.293,0,0,1-1.555-1.829,1.024,1.024,0,0,0-.732-.64.824.824,0,0,0-.457-.091,1.3,1.3,0,0,0-.549.183,1.024,1.024,0,0,0-.64.732,1.3,1.3,0,0,0,.091,1.006,6.731,6.731,0,0,0,2.469,2.835,7.087,7.087,0,0,0,4.115,1.28h.091a7.183,7.183,0,0,0,7.316-7.224V9.08a4.845,4.845,0,0,0-.549-.914" transform="translate(-11.64 -0.667)"/>
    </g>
    <g id="Group_176" data-name="Group 176" class="cls-1">
      <path id="Path_209" data-name="Path 209" class="cls-2" d="M22.039,22.579a3.94,3.94,0,0,1-.64-.914H3.932c-.64,0-1.1-.274-1.1-.914,0-.366.183-.549.549-.823l10.242-7.5c2.1-1.463,4.481-3.2,4.481-6.218A6.323,6.323,0,0,0,11.8-.1,6.48,6.48,0,0,0,5.4,6.3,1.444,1.444,0,0,0,6.859,7.764,1.427,1.427,0,0,0,8.23,6.3a3.475,3.475,0,0,1,6.95,0c0,1.829-1.372,2.835-2.561,3.658,0,0-10.516,7.59-10.608,7.59h0C.64,18.738,0,19.836,0,21.024a3.631,3.631,0,0,0,3.932,3.658h22.4a6.252,6.252,0,0,1-4.3-2.1" transform="translate(0 0.009)"/>
    </g>
    <g id="Group_177" data-name="Group 177" class="cls-1">
      <path id="Path_210" data-name="Path 210" class="cls-3" d="M22.628,12.354l1.006.732V1.563A1.468,1.468,0,0,0,23.177.557,1.468,1.468,0,0,0,22.171.1a1.165,1.165,0,0,0-1.006.457A1.375,1.375,0,0,0,20.8,1.563V8.6a4.43,4.43,0,0,0,1.829,3.749" transform="translate(-1.778 -0.009)"/>
    </g>
    <g id="Group_178" data-name="Group 178" class="cls-1">
      <path id="Path_211" data-name="Path 211" class="cls-3" d="M34.143.1a1.514,1.514,0,0,0-1.1.457,1.469,1.469,0,0,0-.457,1.006V16.012A6.4,6.4,0,0,1,31.4,20.218a3.963,3.963,0,0,1-3.292,1.372h-.091a3.963,3.963,0,0,1-3.292-1.372,4.321,4.321,0,0,1-.914-1.829,6.6,6.6,0,0,0-2.378-3.658l-.732-.549v1.829c0,2.926.823,5.213,2.286,6.676a7.2,7.2,0,0,0,5.03,2.1h.091a6.892,6.892,0,0,0,5.121-2.1,9.15,9.15,0,0,0,2.378-6.676V1.563A1.469,1.469,0,0,0,35.149.557,1.165,1.165,0,0,0,34.143.1" transform="translate(-1.77 -0.009)"/>
    </g>
  </g>
</svg>